<?xml version="1.0" encoding="UTF-8" standalone="no"?>
<svg width="109px" height="142px" viewBox="0 0 109 142" version="1.1" xmlns="http://www.w3.org/2000/svg" xmlns:xlink="http://www.w3.org/1999/xlink">
    <!-- Generator: Sketch 39.1 (31720) - http://www.bohemiancoding.com/sketch -->
    <title>logo</title>
    <desc>Created with Sketch.</desc>
    <defs></defs>
    <g id="About" stroke="none" stroke-width="1" fill="none" fill-rule="evenodd">
        <g transform="translate(-666.000000, -257.000000)" id="Group">
            <g>
                <g id="Group-8" transform="translate(121.000000, 257.000000)">
                    <g id="logo" transform="translate(545.000000, 0.000000)">
                        <path d="M0,25.9983472 C0,20.4764125 4.47614002,16 9.99834717,16 L99.0016528,16 C104.523587,16 109,20.47614 109,25.9983472 L109,115.001653 C109,120.523587 104.52386,125 99.0016528,125 L9.99834717,125 C4.47641251,125 0,120.52386 0,115.001653 L0,25.9983472 Z M14,92 L14,90.025974 C15.0763777,89.9930734 15.9488829,89.9025981 16.6175418,89.7545455 C17.2862006,89.6064928 17.8080729,89.3268419 18.1831742,88.9155844 C18.5582755,88.5043269 18.8110574,87.9450252 18.9415274,87.2376623 C19.0719975,86.5302995 19.1372315,85.5844215 19.1372315,84.4 L19.1372315,61.6 C19.1372315,60.4484791 19.088306,59.5190512 18.9904535,58.8116883 C18.8926009,58.1043255 18.6805903,57.5450237 18.3544153,57.1337662 C18.0282402,56.7225088 17.5797562,56.4428579 17.0089499,56.2948052 C16.4381435,56.1467525 15.6961064,56.0398272 14.7828162,55.974026 L14.7828162,54 L33.3747017,54 C36.5059822,54 39.3925882,54.4935016 42.0346062,55.4805195 C44.6766242,56.4675374 46.9598154,57.8328917 48.8842482,59.5766234 C50.8086811,61.320355 52.3090638,63.3930616 53.3854415,65.7948052 C54.4618192,68.1965488 55,70.8121071 55,73.6415584 C55,76.3394074 54.4944362,78.8151402 53.4832936,81.0688312 C52.4721509,83.3225221 51.0614649,85.2554032 49.2511933,86.8675325 C47.4409217,88.4796617 45.2718901,89.7380907 42.7440334,90.6428571 C40.2161767,91.5476236 37.435576,92 34.402148,92 L14,92 Z M26.8520286,57 C26.2840067,57 26,57.2885774 26,57.8657407 L26,84.1944444 C26,86.1635901 26.601426,87.623452 27.8042959,88.5740741 C29.0071659,89.5246961 30.8615626,90 33.3675418,90 C37.744652,90 41.1109667,88.658964 43.4665871,85.9768519 C45.8222075,83.2947397 47,79.3904577 47,74.2638889 C47,71.5478259 46.6825807,69.1203811 46.0477327,66.9814815 C45.4128847,64.8425819 44.4940394,63.0347296 43.2911695,61.5578704 C42.0882995,60.0810111 40.6265003,58.9521644 38.9057279,58.1712963 C37.1849556,57.3904282 35.2553806,57 33.1169451,57 L26.8520286,57 Z M83.5596869,88.7563636 C80.5916355,92.2521387 76.8897808,94 72.4540117,94 C70.4318229,94 68.5972033,93.6690942 66.9500978,93.0072727 C65.3029924,92.3454512 63.8923738,91.4121272 62.7181996,90.2072727 C61.5440254,89.0024182 60.6307926,87.5684932 59.9784736,85.9054545 C59.3261546,84.2424159 59,82.3927375 59,80.3563636 C59,78.2521107 59.3424623,76.3260693 60.0273973,74.5781818 C60.7123322,72.8302943 61.6826421,71.3200064 62.9383562,70.0472727 C64.1940702,68.7745391 65.6780736,67.7818217 67.390411,67.0690909 C69.1027483,66.3563601 70.9862911,66 73.0410959,66 C76.4983865,66 79.1891619,66.9672631 81.1135029,68.9018182 C83.0378439,70.8363733 84,73.5514977 84,77.0472727 C84,77.5903057 83.9184614,77.9212115 83.7553816,78.04 C83.5923019,78.1587885 83.1356854,78.2181818 82.3855186,78.2181818 L66.6320939,78.2181818 C66.5016301,78.5236379 66.4363992,79.0836323 66.4363992,79.8981818 C66.4363992,83.2242591 67.1294777,85.8545358 68.5156556,87.7890909 C69.9018334,89.723646 71.7853762,90.6909091 74.1663405,90.6909091 C75.5362104,90.6909091 76.8979058,90.3684881 78.2514677,89.7236364 C79.6050296,89.0787847 80.9178019,88.1624302 82.1898239,86.9745455 L83.5596869,88.7563636 Z M69,60 L75.1835206,54.1234568 C75.9625507,53.3662514 76.6847657,52.8230469 77.3501873,52.4938272 C78.0156088,52.1646074 78.6729056,52 79.3220974,52 C80.1335871,52 80.7827691,52.1975289 81.2696629,52.5925926 C81.7565567,52.9876563 82,53.5308607 82,54.2222222 C82,54.7818958 81.6997533,55.275718 81.0992509,55.7037037 C80.4987486,56.1316894 79.6791563,56.5761294 78.6404494,57.037037 L71.8726592,60 L69,60 Z M89,88.5695364 C89,87.580569 89.3300406,86.7384141 89.9901316,86.0430464 C90.6502226,85.3476786 91.4714863,85 92.4539474,85 C93.4671103,85 94.3114001,85.3476786 94.9868421,86.0430464 C95.6622841,86.7384141 96,87.580569 96,88.5695364 C96,89.5275986 95.6622841,90.3388488 94.9868421,91.0033113 C94.3114001,91.6677737 93.4671103,92 92.4539474,92 C91.4714863,92 90.6502226,91.6677737 89.9901316,91.0033113 C89.3300406,90.3388488 89,89.5275986 89,88.5695364 Z" id="Combined-Shape" fill="#FFF0DF"></path>
                        <path d="M35.4198618,12.3262584 C49.1561658,8.08251335 54.5,0 54.5,0 L54.5,16.8245201 L4,16.8245201 C4,16.8245201 18.0901173,17.2422289 35.4198618,12.3262584 L35.4198618,12.3262584 Z M73.5801379,12.3262584 C59.8438342,8.08251335 54.5,0 54.5,0 L54.5,16.8245201 L105,16.8245201 C105,16.8245201 90.909883,17.2422289 73.5801379,12.3262584 L73.5801379,12.3262584 Z" id="Combined-Shape-Copy-2" fill="#FFEFDF"></path>
                        <path d="M35.4198618,137.326258 C49.1561658,133.082513 54.5,125 54.5,125 L54.5,141.82452 L4,141.82452 C4,141.82452 18.0901173,142.242229 35.4198618,137.326258 L35.4198618,137.326258 Z M73.5801379,137.326258 C59.8438342,133.082513 54.5,125 54.5,125 L54.5,141.82452 L105,141.82452 C105,141.82452 90.909883,142.242229 73.5801379,137.326258 L73.5801379,137.326258 Z" id="Combined-Shape-Copy-3" fill="#FFEFDF" transform="translate(54.500000, 133.416667) scale(1, -1) translate(-54.500000, -133.416667) "></path>
                    </g>
                </g>
            </g>
        </g>
    </g>
</svg>