<?xml version="1.0" encoding="UTF-8" standalone="no"?>
<svg width="35px" height="51px" viewBox="0 0 35 51" version="1.1" xmlns="http://www.w3.org/2000/svg" xmlns:xlink="http://www.w3.org/1999/xlink" xmlns:sketch="http://www.bohemiancoding.com/sketch/ns">
    <!-- Generator: Sketch 3.4.4 (17249) - http://www.bohemiancoding.com/sketch -->
    <title>map-icon</title>
    <desc>Created with Sketch.</desc>
    <defs></defs>
    <g id="Page-9" stroke="none" stroke-width="1" fill="none" fill-rule="evenodd" sketch:type="MSPage">
        <g id="map-icon" sketch:type="MSLayerGroup" fill="#1C1C1C">
            <path d="M17.5,0 C7.83522727,0 0,7.84921875 0,17.53125 C0,27.2132812 17.5,51 17.5,51 C17.5,51 35,27.2132812 35,17.53125 C35,7.84921875 27.1647727,0 17.5,0 L17.5,0 Z M17.5,27.09375 C12.2277273,27.09375 7.95454545,22.8129375 7.95454545,17.53125 C7.95454545,12.2495625 12.2277273,7.96875 17.5,7.96875 C22.7722727,7.96875 27.0454545,12.2495625 27.0454545,17.53125 C27.0454545,22.8129375 22.7722727,27.09375 17.5,27.09375 L17.5,27.09375 Z" id="Shape" sketch:type="MSShapeGroup"></path>
            <ellipse id="Oval" sketch:type="MSShapeGroup" cx="17.5159091" cy="17.53125" rx="7.95454545" ry="7.96875"></ellipse>
        </g>
    </g>
</svg>