<?xml version="1.0" encoding="UTF-8" standalone="no"?>
<svg width="190px" height="118px" viewBox="0 0 190 118" version="1.1" xmlns="http://www.w3.org/2000/svg" xmlns:xlink="http://www.w3.org/1999/xlink">
    <!-- Generator: Sketch 39.1 (31720) - http://www.bohemiancoding.com/sketch -->
    <title>open-table-logo</title>
    <desc>Created with Sketch.</desc>
    <defs></defs>
    <g id="Reservation" stroke="none" stroke-width="1" fill="none" fill-rule="evenodd">
        <g id="Menu" transform="translate(-627.000000, -730.000000)">
            <g id="Group-3" transform="translate(389.000000, 549.000000)">
                <g id="opentable-tab" transform="translate(0.000000, 162.000000)">
                    <g id="Group-5" transform="translate(47.000000, 18.621868)">
                        <g id="open-table-logo" transform="translate(191.000000, 0.378132)">
                            <path d="M62.3713139,90.3262774 C67.2655474,90.3262774 71.0177007,93.9570803 71.0177007,99.0551825 C71.0177007,99.3401825 70.9774818,99.9933942 70.9365693,100.278394 C70.8956569,100.76865 70.4470073,101.134781 70.0392701,101.134781 L57.9659489,101.134781 C58.0068613,103.459854 59.9235036,105.499234 62.6570073,105.499234 C64.5327372,105.499234 65.8377737,104.806496 66.6941606,104.113759 C67.1435036,103.745547 67.6323723,103.705328 67.9180657,104.113759 L69.5087956,106.233577 C69.8354015,106.601095 69.8763139,107.049745 69.4269708,107.457482 C67.7960219,108.844343 65.4709489,110.027336 62.4115328,110.027336 C56.7836496,110.027336 52.8678467,105.540839 52.8678467,100.15635 C52.8678467,94.8536861 56.7836496,90.3262774 62.3713139,90.3262774 L62.3713139,90.3262774 Z M65.8786861,97.790365 C65.7968613,95.9555474 64.3288686,94.5277737 62.2485766,94.5277737 C59.9644161,94.5277737 58.4957299,95.9139416 58.2516423,97.790365 L65.8786861,97.790365 L65.8786861,97.790365 Z M111.550109,83.0667518 L92.3649635,83.0667518 C91.9163139,83.0667518 91.5904015,83.4335766 91.5904015,83.8420073 L91.5904015,87.1864234 C91.5904015,87.5941606 91.9163139,87.9616788 92.3649635,87.9616788 L99.2860949,87.9616788 L99.2860949,108.804818 C99.2860949,109.213248 99.6529197,109.580073 100.060657,109.580073 L103.854416,109.580073 C104.262153,109.580073 104.628978,109.213248 104.628978,108.804818 L104.628978,87.9616788 L111.550109,87.9616788 C111.998066,87.9616788 112.324672,87.5941606 112.324672,87.1864234 L112.324672,83.8420073 C112.324672,83.4335766 111.998066,83.0667518 111.550109,83.0667518 L111.550109,83.0667518 Z M140.409307,90.3276642 C138.532883,90.3276642 136.65646,90.7756204 135.800073,91.1431387 L135.800073,83.9640511 C135.800073,83.5154015 135.392336,83.0667518 134.902774,83.0667518 L131.598577,83.0667518 C131.149927,83.0667518 130.701277,83.5154015 130.701277,83.9640511 L130.701277,108.682774 C130.701277,109.172336 131.149927,109.580073 131.598577,109.580073 L133.02635,109.580073 C133.053394,109.580073 133.081131,109.580073 133.108175,109.573139 L133.488869,109.573139 C133.985365,109.573139 134.392409,109.165401 134.392409,108.675839 L134.392409,107.282044 L134.413212,107.214088 C134.413212,107.214088 136.574635,110.028723 140.695,110.028723 C145.834015,110.028723 149.545949,105.542226 149.545949,100.157737 C149.545949,94.6512044 145.997664,90.3276642 140.409307,90.3276642 L140.409307,90.3276642 Z M139.960657,105.378577 C137.51354,105.378577 136.20781,103.828759 135.800073,102.768504 L135.800073,96.0380657 C135.800073,96.0380657 137.349891,94.9771168 139.715876,94.9771168 C142.816204,94.9771168 144.406934,97.5060584 144.406934,100.157737 C144.406934,102.809416 142.897336,105.378577 139.960657,105.378577 L139.960657,105.378577 Z M172.001314,90.3262774 C176.895547,90.3262774 180.648394,93.9570803 180.648394,99.0551825 C180.648394,99.3401825 180.607482,99.9933942 180.567263,100.278394 C180.525657,100.76865 180.077007,101.134781 179.66927,101.134781 L167.595949,101.134781 C167.637555,103.459854 169.553504,105.499234 172.287007,105.499234 C174.163431,105.499234 175.468467,104.806496 176.324854,104.113759 C176.773504,103.745547 177.263066,103.705328 177.548066,104.113759 L179.139489,106.233577 C179.466095,106.601095 179.506314,107.049745 179.057664,107.457482 C177.426022,108.844343 175.100949,110.027336 172.042226,110.027336 C166.41365,110.027336 162.497847,105.540839 162.497847,100.15635 C162.497847,94.8536861 166.41365,90.3262774 172.001314,90.3262774 L172.001314,90.3262774 Z M175.390803,97.790365 C175.309672,95.9555474 173.841679,94.5277737 171.760693,94.5277737 C169.477226,94.5277737 168.00854,95.9139416 167.764453,97.790365 L175.390803,97.790365 L175.390803,97.790365 Z M40.8749635,90.3276642 C37.000073,90.3276642 34.8518248,92.9717153 34.7228467,93.1346715 L34.7228467,91.6327007 C34.7228467,91.1431387 34.3151095,90.7354015 33.8255474,90.7354015 L31.820146,90.7354015 C31.3305839,90.7354015 30.9228467,91.1431387 30.9228467,91.6327007 L30.9228467,116.351423 C30.9228467,116.800073 31.3305839,117.248723 31.820146,117.248723 L35.1243431,117.248723 C35.5729927,117.248723 36.0216423,116.800073 36.0216423,116.351423 L36.0216423,109.254161 C36.8780292,109.580073 38.6726277,110.028723 40.5490511,110.028723 C46.1783212,110.028723 49.8902555,105.705182 49.8902555,100.19865 C49.8902555,94.4875547 46.0146715,90.3276642 40.8749635,90.3276642 L40.8749635,90.3276642 Z M39.9374453,105.378577 C37.5714599,105.378577 36.0216423,104.318321 36.0216423,104.318321 L36.0216423,97.5878832 C36.4293796,96.5276277 37.7344161,94.9771168 40.1822263,94.9771168 C43.1189051,94.9771168 44.6278102,97.5469708 44.6278102,100.19865 C44.6278102,102.849635 43.0370803,105.378577 39.9374453,105.378577 L39.9374453,105.378577 Z M84.8467883,90.3276642 C81.2367883,90.3276642 79.4831022,92.2644161 78.7827372,93.0466058 L78.7827372,91.6327007 C78.7827372,91.1431387 78.375,90.7354015 77.885438,90.7354015 L75.7510584,90.7354015 C75.3017153,90.7354015 74.8530657,91.1022263 74.8530657,91.6327007 L74.8530657,108.682774 C74.8530657,109.172336 75.3017153,109.580073 75.7510584,109.580073 L78.7688686,109.580073 C79.6668613,109.580073 79.9518613,109.376204 79.9518613,108.682774 L79.9518613,97.9144891 C80.4005109,96.6087591 81.5835036,94.9771168 84.0313139,94.9771168 C86.3154745,94.9771168 87.2939051,96.4867153 87.2939051,98.9338321 L87.2939051,108.682774 C87.2939051,109.172336 87.7023358,109.580073 88.1912044,109.580073 L91.4954015,109.580073 C91.9440511,109.580073 92.3927007,109.172336 92.3927007,108.682774 L92.3927007,98.9338321 C92.3927007,94.3655109 90.8428832,90.3276642 84.8467883,90.3276642 L84.8467883,90.3276642 Z M119.089781,90.3276642 C116.030365,90.3276642 113.052774,91.1022263 112.645036,91.2651825 C112.237299,91.3879197 111.869781,91.7138321 112.033431,92.4072628 L112.441168,94.5284672 C112.522299,95.099854 112.889818,95.5485036 113.501423,95.3439416 C114.603285,95.0180292 117.091314,94.6512044 118.804088,94.6512044 C120.803248,94.6512044 121.496679,95.7932847 121.414854,98.1994891 C121.414854,98.1994891 119.70208,97.669708 117.784745,97.669708 C113.011861,97.669708 110.279051,100.238869 110.279051,103.583978 C110.279051,107.621825 112.889818,110.028723 116.642664,110.028723 C119.579343,110.028723 121.455766,108.723686 122.556934,107.662737 L122.556934,108.675839 C122.556934,109.165401 122.965365,109.573139 123.454234,109.573139 L123.787774,109.573139 C123.821752,109.580073 123.862664,109.580073 123.902883,109.580073 L125.289745,109.580073 C125.779307,109.580073 126.187737,109.172336 126.187737,108.682774 L126.187737,98.5260949 C126.187737,93.3863869 124.963832,90.3276642 119.089781,90.3276642 L119.089781,90.3276642 Z M121.29281,104.236496 C121.048029,104.929927 119.579343,106.235657 117.906788,106.235657 C116.153102,106.235657 115.173978,105.174708 115.173978,103.583978 C115.173978,101.911423 116.356971,100.89208 118.519088,100.89208 C120.027993,100.89208 121.29281,101.462774 121.29281,101.462774 L121.29281,104.236496 L121.29281,104.236496 Z M13.6612774,83.0868613 C6.22354015,83.0868613 0.173357664,89.1717153 0.173357664,96.6496715 C0.173357664,104.216387 6.09456204,110.144526 13.6612774,110.144526 C21.2481022,110.144526 27.1901095,104.216387 27.1901095,96.6496715 C27.1901095,89.1717153 21.1191241,83.0868613 13.6612774,83.0868613 L13.6612774,83.0868613 Z M13.6612774,88.3285036 C18.154708,88.3285036 21.9484672,92.135438 21.9484672,96.6496715 C21.9484672,101.204818 18.2295985,104.902883 13.6612774,104.902883 C9.11306569,104.902883 5.415,101.204818 5.415,96.6496715 C5.415,92.0605474 9.11306569,88.3285036 13.6612774,88.3285036 L13.6612774,88.3285036 Z M159.063285,109.611277 C159.552153,109.611277 159.966131,109.20354 159.966131,108.713978 L159.966131,105.395912 C159.966131,104.90635 159.558394,104.498613 159.068832,104.498613 L158.923905,104.498613 C158.518942,104.498613 158.113978,104.09573 158.113978,103.690766 L158.113978,84.0333942 C158.113978,83.5847445 157.665328,83.1360949 157.216679,83.1360949 L153.912482,83.1360949 C153.463832,83.1360949 153.015182,83.5847445 153.015182,84.0333942 L153.015182,105.80781 L153.029051,106.375036 C153.029051,107.996277 154.649599,109.616131 156.270146,109.616131 L159.063285,109.611277 L159.063285,109.611277 Z" id="Fill-1" fill="#2D2E2B"></path>
                            <path d="M182.61219,94.0957664 C182.61219,91.8573723 184.238978,90.3262774 186.211095,90.3262774 C188.199854,90.3262774 189.826642,91.8573723 189.826642,94.0957664 C189.826642,96.334854 188.199854,97.8652555 186.211095,97.8652555 C184.238978,97.8652555 182.61219,96.334854 182.61219,94.0957664 L182.61219,94.0957664 Z M189.060401,94.0957664 C189.060401,92.2990876 187.816387,91.0162409 186.211095,91.0162409 C184.603029,91.0162409 183.379124,92.2990876 183.379124,94.0957664 C183.379124,95.9139416 184.603029,97.1572628 186.211095,97.1572628 C187.816387,97.1572628 189.060401,95.9139416 189.060401,94.0957664 L189.060401,94.0957664 Z M184.832555,92.1077007 L186.285985,92.1077007 C187.089672,92.1077007 187.779635,92.4322263 187.779635,93.3503285 C187.779635,93.8086861 187.491861,94.2504015 187.070949,94.4022628 L187.952299,95.9916058 L187.070949,95.9916058 L186.400401,94.6518978 L185.617518,94.6518978 L185.617518,95.9916058 L184.832555,95.9916058 L184.832555,92.1077007 L184.832555,92.1077007 Z M186.115401,94.0395985 C186.632007,94.0395985 186.93781,93.8086861 186.93781,93.3877737 C186.93781,93.0070803 186.727701,92.7567518 186.152847,92.7567518 L185.617518,92.7567518 L185.617518,94.0395985 L186.115401,94.0395985 L186.115401,94.0395985 Z" id="Fill-2" fill="#2D2E2B"></path>
                            <path d="M44.4371168,33.5717518 C44.4371168,29.024927 48.1213139,25.3379562 52.665365,25.3379562 C57.2094161,25.3379562 60.895,29.024927 60.895,33.5717518 C60.895,38.1199635 57.2094161,41.8069343 52.665365,41.8069343 C48.1213139,41.8069343 44.4371168,38.1199635 44.4371168,33.5717518 L44.4371168,33.5717518 Z M102.238029,41.8069343 C97.6932847,41.8069343 94.009781,38.1199635 94.009781,33.5717518 C94.009781,29.024927 97.6932847,25.3379562 102.238029,25.3379562 C106.78208,25.3379562 110.467664,29.024927 110.467664,33.5717518 C110.467664,38.1199635 106.78208,41.8069343 102.238029,41.8069343 L102.238029,41.8069343 Z M102.238723,0.634489051 C84.060438,0.634489051 69.3229562,15.3816788 69.3229562,33.5717518 C69.3229562,51.7639051 84.060438,66.5104015 102.238723,66.5104015 C120.418394,66.5104015 135.154489,51.7639051 135.154489,33.5717518 C135.154489,15.3816788 120.418394,0.634489051 102.238723,0.634489051 L102.238723,0.634489051 Z" id="Fill-3" fill="#C93642"></path>
                        </g>
                    </g>
                </g>
            </g>
        </g>
    </g>
</svg>