<?xml version="1.0" encoding="UTF-8" standalone="no"?>
<svg width="110px" height="69px" viewBox="0 0 110 69" version="1.1" xmlns="http://www.w3.org/2000/svg" xmlns:xlink="http://www.w3.org/1999/xlink">
    <!-- Generator: Sketch 39.1 (31720) - http://www.bohemiancoding.com/sketch -->
    <title>sign</title>
    <desc>Created with Sketch.</desc>
    <defs></defs>
    <g id="About" stroke="none" stroke-width="1" fill="none" fill-rule="evenodd">
        <g transform="translate(-979.000000, -2169.000000)" id="chef" fill="#F6F3F0">
            <g transform="translate(0.000000, 1713.000000)">
                <g id="chef-info" transform="translate(746.000000, 93.000000)">
                    <path d="M286.318392,397.650532 C286.15869,397.528077 285.998987,397.403473 285.837155,397.281017 C285.632736,397.424956 285.443223,397.6269 285.21751,397.699944 C284.668133,397.880405 284.099592,398.000713 283.53744,398.142503 C283.556604,397.519483 283.50337,396.881425 283.618356,396.27774 C283.690754,395.908224 284.025065,395.590269 284.24226,395.250831 C286.548364,391.645908 288.963066,388.107583 291.113726,384.410281 C292.318947,382.33498 293.042932,379.744076 291.516176,377.675219 C289.934057,375.533319 287.231891,375.477462 284.870423,376.132708 C281.178101,377.153172 277.436805,378.212306 273.968066,379.819268 C263.553335,384.635858 254.205416,391.130305 245.824229,399.100665 C239.80238,404.828153 235.324323,411.335491 234.099937,419.875162 C233.246061,425.832523 236.987358,429.070079 241.936006,429.622204 C250.285252,430.552438 257.442053,427.30414 264.104841,422.710978 C271.478837,417.627993 277.257938,410.903673 282.340736,403.521959 C283.682237,401.575559 284.993926,399.607675 286.318392,397.648384 L286.318392,397.650532 Z M317.339004,385.948496 C312.481919,387.340624 309.232506,390.745751 306.164088,394.40868 C305.929858,394.299114 305.693498,394.1874 305.459268,394.077834 C305.65517,393.360287 305.680722,392.515987 306.083172,391.950973 C307.286265,390.264522 308.67887,388.72201 309.905385,387.054894 C310.346164,386.457654 310.52929,385.662767 310.82953,384.958109 C310.618723,384.779797 310.412175,384.599336 310.201367,384.421023 C308.197633,386.244968 306.087431,387.961496 304.215718,389.918638 C302.150232,392.075577 300.336012,394.477427 298.345054,396.711705 C297.882982,397.229457 297.15048,397.495851 296.539352,397.878257 C296.637303,397.119891 296.496764,396.196103 296.873662,395.635385 C299.041357,392.42146 301.343203,389.302063 303.572649,386.133254 C304.098603,385.38563 304.520217,384.560666 304.988678,383.772223 C304.877951,383.617542 304.767224,383.46501 304.654368,383.310329 C303.647177,383.883937 302.642116,384.4511 301.637055,385.024708 C294.987043,388.812241 290.355671,394.567657 286.239606,400.954687 C280.432823,409.96055 273.797717,418.220937 264.871413,424.320088 C259.562902,427.948643 253.875364,430.530954 247.557533,431.521341 C244.357095,432.021906 241.154528,431.742621 238.205356,430.264559 C234.02328,428.167775 232.481618,424.360907 233.150239,419.656031 C234.52581,410.01211 240.128174,403.060065 246.848454,396.864238 C255.583116,388.816537 265.390978,382.365057 276.191125,377.565654 C280.390236,375.70089 284.71285,374.141192 289.480502,374.777102 C292.346629,375.157359 294.069286,376.86959 294.182143,379.823565 C294.32694,383.63258 292.54466,386.698269 290.496209,389.658688 C289.795648,390.672707 289.131285,391.712506 288.449888,392.739415 C288.613849,392.881206 288.77994,393.025145 288.946031,393.164788 C289.644463,392.464427 290.447234,391.841407 291.026422,391.048668 C293.786081,387.265432 296.488247,383.439229 299.203189,379.62162 C299.356504,379.406786 299.618416,379.114611 299.57157,378.925556 C298.947665,376.433476 301.147301,375.892093 302.365298,374.697613 C305.82126,371.311821 309.253799,367.898101 312.8141,364.626171 C313.601966,363.902179 314.332338,362.305959 315.933622,363.337164 C315.341658,364.263101 314.934949,365.429652 314.127919,366.076304 C307.626963,371.288189 302.356781,377.634401 297.572094,384.440358 C297.382581,384.71105 297.169644,384.966703 297.001424,385.248136 C296.899215,385.417855 296.858757,385.626245 296.607491,386.343792 C298.08953,385.430745 299.203189,384.721791 300.338142,384.049359 C301.928778,383.101939 303.500251,382.109404 305.152639,381.286588 C305.729698,381.000858 306.521822,381.16628 307.215995,381.125462 C307.177667,381.812932 307.245807,382.526183 307.073328,383.177131 C306.881685,383.901124 306.474976,384.567111 305.976704,385.667063 C307.586505,384.728236 308.729975,383.954832 309.95862,383.368334 C312.111409,382.341425 312.718279,382.781836 312.637363,385.164351 C312.626716,385.493047 312.605422,385.819596 312.584128,386.279342 C314.300398,385.611206 315.861224,384.949516 317.458248,384.393095 C320.441491,383.355444 320.801354,383.63258 320.539442,387.134383 C322.12582,386.025837 323.477968,385.0999 324.81308,384.148183 C325.739355,383.488641 326.510186,382.530479 327.396002,384.37376 C327.953896,385.540311 329.929948,384.966703 331.463092,383.411301 C334.442076,380.388579 337.433836,377.383045 340.451148,374.405438 C341.043112,373.823237 341.782002,373.397864 342.454882,372.899448 C342.635878,373.017607 342.819004,373.135766 343,373.253925 C342.759382,373.898429 342.655043,374.648201 342.26111,375.172397 C339.482286,378.852513 336.194545,381.986948 332.776911,385.080565 C328.907852,388.580219 325.551971,392.717932 322.242935,396.806233 C316.736393,403.607893 311.464082,410.602905 306.038456,417.473313 C305.599806,418.029734 304.74593,418.24242 304.083697,418.616232 C304.192295,417.810603 304.100732,416.899704 304.441431,416.216531 C306.472847,412.158307 309.298516,408.738141 312.671432,405.745497 C314.000157,404.563907 315.16705,403.186818 316.340331,401.835509 C316.649089,401.481032 316.702323,400.900978 316.872673,400.426194 C316.402083,400.258623 315.918716,399.908443 315.467291,399.95141 C310.833789,400.376782 306.210934,400.933204 301.575304,401.311312 C298.602708,401.551927 295.613077,401.586301 292.629835,401.627119 C292.120916,401.633564 291.607739,401.21034 290.52815,400.737704 C291.70356,400.333815 292.280619,399.994377 292.876841,399.95141 C301.108972,399.35417 309.347491,398.832122 317.575364,398.183322 C318.437757,398.114575 319.476888,397.579637 320.043299,396.91365 C322.251453,394.322746 324.336102,391.620128 326.378165,388.887433 C326.76571,388.367533 326.748675,387.52753 326.916895,386.835763 C326.007655,386.625225 324.989818,386.04732 324.20834,386.285787 C322.917944,386.678934 321.829838,387.703694 320.571382,388.270858 C317.200595,389.789738 317.077092,389.68232 317.341133,385.948496 L317.339004,385.948496 Z" id="sign"></path>
                </g>
            </g>
        </g>
    </g>
</svg>