<?xml version="1.0" encoding="UTF-8"?>
<svg width="54px" height="26px" viewBox="0 0 54 26" version="1.1" xmlns="http://www.w3.org/2000/svg" xmlns:xlink="http://www.w3.org/1999/xlink">
    <!-- Generator: Sketch 40.1 (33804) - http://www.bohemiancoding.com/sketch -->
    <title>logo-vamtam</title>
    <desc>Created with Sketch.</desc>
    <defs></defs>
    <g id="Page-1" stroke="none" stroke-width="1" fill="none" fill-rule="evenodd">
        <g id="Vamtam-wp-page" transform="translate(-184.000000, -807.000000)" fill="#9B9B9B">
            <g id="Group-3" transform="translate(184.000000, 807.000000)">
                <path d="M23.4594084,13.9383037 L16.5335977,13.9383037 C16.1509459,13.9383037 15.9705946,14.1620241 15.8530488,14.4078256 C15.5195839,15.1054311 12.8330886,21.0732904 12.6830161,21.3955165 C12.4225379,21.9549495 11.7175279,21.9579907 11.446472,21.3617997 C11.1800438,20.7756577 2.14316971,0.935417951 2.0098895,0.634611927 C1.44053972,-0.651251185 -0.463331017,0.211235713 0.104564311,1.49723105 C0.804153178,3.08125573 10.1992178,23.6694778 10.4176492,24.1499741 C11.1854649,25.8388511 13.0459667,25.6339064 13.7237388,24.2103997 C14.6495603,22.2656723 16.6664812,17.6472751 16.8608482,17.2196677 C17.0552151,16.7920604 17.4797813,16.0390537 18.5001418,16.0390537 L23.4370628,16.0390537 C25.0076008,16.0389215 24.8083416,13.9383037 23.4594084,13.9383037 Z M53.900978,23.7850402 C53.7394022,23.3797784 44.0673316,2.18716768 43.6562521,1.29678185 C43.3963028,0.733910971 42.6573116,0.815756654 42.4567302,1.33697746 C42.2364477,1.90936836 33.7255544,20.5470451 33.3877261,21.2902674 C33.0455345,22.0430097 32.3241289,21.8338338 32.0805752,21.2980685 C31.9873584,21.0931238 23.412205,2.22775996 22.9856555,1.28924517 C22.7472584,0.764851019 22.0339184,0.772387697 21.7783325,1.33036634 C21.6831323,1.53835222 18.8860991,7.94399997 17.7771496,10.1390245 C17.1299208,11.4199954 18.9888359,12.3512379 19.6458492,11.114826 C19.6458492,11.114826 21.4908809,7.02611187 21.7824314,6.38179198 C22.039604,5.81323554 22.7805785,5.88886677 22.9934566,6.35719861 C23.1419424,6.68392023 29.9648841,21.6944714 31.1116492,24.2172753 C31.9126527,25.9795358 33.7957645,25.4437705 34.2873675,24.3262266 C34.4730078,23.9043048 41.9431783,7.4177547 42.4264513,6.42026871 C42.6911606,5.87392564 43.4145495,5.82526778 43.6908944,6.42502872 C43.7615011,6.57840673 51.1416282,22.8035531 51.9870584,24.6764838 C52.5044447,25.8228522 54.4582956,25.1830279 53.900978,23.7850402 Z" id="logo-vamtam"></path>
            </g>
        </g>
    </g>
</svg>